<svg xmlns="http://www.w3.org/2000/svg" width="124.187" height="117.365" viewBox="0 0 124.187 117.365">
  <g id="그룹_282" data-name="그룹 282" transform="translate(-308.96 -360.45)">
    <path id="패스_43" data-name="패스 43" d="M399.74,517.37c11.148-20.751,28.381-23.8,48.827-36.62s9.155-43.945,9.155-43.945-20.489,25.237-41.808,28.774c-14.18,2.353-16.174,13.034-16.174,13.034s-1.993-10.681-16.174-13.034c-21.319-3.537-41.808-28.774-41.808-28.774s-11.291,31.127,9.155,43.945,37.667,15.869,48.815,36.62Z" transform="translate(-28.687 -58.16)" fill="#298a9d" stroke="#fff" stroke-miterlimit="10" stroke-width="2"/>
    <path id="패스_44" data-name="패스 44" d="M352.6,417.793" transform="translate(-33.829 -51.151)" fill="#298a9d" stroke="#fff" stroke-miterlimit="10" stroke-width="2"/>
    <path id="패스_45" data-name="패스 45" d="M412.591,432.939c-2.989-6.91-10.476-14.269-18.692-19.226-13.657-8.24-31.051-1.6-31.051-1.6s.155,19.314,10.834,28.914c22.659,20.37,43.754,13,43.754,13S416.8,442.678,412.591,432.939Z" transform="translate(-37.608 -48.125)" fill="#298a9d" stroke="#fff" stroke-miterlimit="10" stroke-width="2"/>
    <g id="그룹_280" data-name="그룹 280" transform="translate(334.887 459.209)">
      <g id="그룹_279" data-name="그룹 279">
        <path id="패스_46" data-name="패스 46" d="M378.128,583.33v-6.776c.924.379,1.387.562,2.318.915v6.7a3.048,3.048,0,0,0,1.874,2.8,1.363,1.363,0,0,0,1.939-1.432v-6.711c.949.314,1.424.465,2.38.754v6.809c0,2.642-1.729,3.746-4.318,2.809A6.2,6.2,0,0,1,378.128,583.33Z" transform="translate(-378.128 -576.336)" fill="#298a9d" stroke="#f8f9f9" stroke-miterlimit="10" stroke-width="0.25"/>
        <path id="패스_47" data-name="패스 47" d="M403.936,593.654c-.679.984-1.434,1.419-3.75.9-1.5-.335-2.251-.519-3.743-.916a1.9,1.9,0,0,1-1.356-1.7v-9.588c.96.265,1.441.392,2.406.631v9c1.1.277,1.645.408,2.747.652.838.186,1.351.237,1.807-.224C402.8,592.911,403.18,593.161,403.936,593.654Z" transform="translate(-384.38 -578.472)" fill="#298a9d" stroke="#f8f9f9" stroke-miterlimit="10" stroke-width="0.25"/>
        <path id="패스_48" data-name="패스 48" d="M418.6,594.6c0,1.794-1.837,3.363-4.716,2.992a5.584,5.584,0,0,1-4.84-3.642c.8-.234,1.2-.355,2-.608a3.448,3.448,0,0,0,2.82,2.244c1.052.135,2.309-.217,2.309-1.095,0-2.49-6.838-1.417-6.838-5.753,0-2.124,2.313-2.978,4.528-2.706a5.757,5.757,0,0,1,4.623,2.82c-.778.308-1.167.458-1.944.749a3.358,3.358,0,0,0-2.679-1.547c-1.7-.21-2.12.643-2.12,1.071C411.75,591.345,418.6,590.246,418.6,594.6Z" transform="translate(-389.527 -579.814)" fill="#298a9d" stroke="#f8f9f9" stroke-miterlimit="10" stroke-width="0.25"/>
        <path id="패스_49" data-name="패스 49" d="M436.641,593.316a5.5,5.5,0,0,1-5.66,5.67,5.639,5.639,0,0,1-5.678-5.757c0-3.356,2.522-5.381,5.678-5.367S436.641,589.94,436.641,593.316Zm-2.45.1a3.007,3.007,0,0,0-3.211-3.174,2.966,2.966,0,0,0-3.231,3.124,3.086,3.086,0,0,0,3.231,3.247A3.019,3.019,0,0,0,434.191,593.412Z" transform="translate(-395.519 -580.505)" fill="#298a9d" stroke="#f8f9f9" stroke-miterlimit="10" stroke-width="0.25"/>
        <path id="패스_50" data-name="패스 50" d="M448.58,586.871c3.328-.357,5.366,1.7,5.366,5.023a5.9,5.9,0,0,1-5.255,6.1c-1.154.118-1.731.168-2.887.251a1.23,1.23,0,0,1-1.335-1.251v-9.771C446.115,587.117,446.938,587.047,448.58,586.871Zm-.258,8.932a3.347,3.347,0,0,0,3.1-3.533c0-2.067-1.16-3.434-3.213-3.224-.5.051-.755.075-1.258.12v6.763C447.5,595.882,447.774,595.857,448.321,595.8Z" transform="translate(-402.585 -580.125)" fill="#298a9d" stroke="#f8f9f9" stroke-miterlimit="10" stroke-width="0.25"/>
        <path id="패스_51" data-name="패스 51" d="M469.695,593.878c-1.039.287-1.561.424-2.606.681-.327-1.065-.49-1.6-.817-2.664-1.425.34-2.14.5-3.575.778-.337,1.209-.505,1.812-.842,3.017-1.04.194-1.561.284-2.606.448,1.456-4.368,2.182-6.571,3.631-11.013a2.3,2.3,0,0,1,1.625-1.475,1.353,1.353,0,0,1,1.639.749C467.57,588.211,468.281,590.106,469.695,593.878Zm-3.987-3.819c-.488-1.584-.731-2.378-1.22-3.966-.489,1.805-.734,2.7-1.224,4.5C464.245,590.393,464.733,590.286,465.708,590.059Z" transform="translate(-408.034 -578.936)" fill="#298a9d" stroke="#f8f9f9" stroke-miterlimit="10" stroke-width="0.25"/>
        <path id="패스_52" data-name="패스 52" d="M486.815,576.209V587.5c-.931.381-1.4.566-2.336.921v-6.493c-.627,1.7-.942,2.547-1.573,4.234-.865.311-1.3.462-2.169.753-.642-1.243-.964-1.867-1.609-3.119v6.473c-.953.3-1.431.44-2.389.711V579.753c1.023-.3,1.534-.452,2.55-.777,1.017,1.9,1.524,2.841,2.534,4.716,1.01-2.579,1.513-3.877,2.515-6.491C485.333,576.818,485.828,576.62,486.815,576.209Z" transform="translate(-414.482 -576.209)" fill="#298a9d" stroke="#f8f9f9" stroke-miterlimit="10" stroke-width="0.25"/>
      </g>
    </g>
    <path id="패스_53" data-name="패스 53" d="M426.361,432.939c2.989-6.91,10.477-14.269,18.692-19.226,13.656-8.24,31.051-1.6,31.051-1.6s-.155,19.314-10.834,28.914c-22.659,20.37-43.754,13-43.754,13S422.148,442.678,426.361,432.939Z" transform="translate(-59.236 -48.125)" fill="#298a9d" stroke="#fff" stroke-miterlimit="10" stroke-width="2"/>
  </g>
</svg>
