<svg xmlns="http://www.w3.org/2000/svg" width="37.061" height="37.06" viewBox="0 0 37.061 37.06">
  <g id="그룹_183" data-name="그룹 183" transform="translate(-703.029 -980.444)">
    <rect id="사각형_187" data-name="사각형 187" width="20.246" height="4.344" rx="2" transform="translate(725.774 1000.116) rotate(45)" fill="#fff"/>
    <path id="패스_27" data-name="패스 27" d="M12.933,0a12.944,12.944,0,0,1,4.948.987,13.178,13.178,0,0,1,3.738,2.364,12.888,12.888,0,0,1,4.233,8.978c.007.122.014.362.014.6A12.936,12.936,0,0,1,.652,17,12.76,12.76,0,0,1,0,12.933,12.972,12.972,0,0,1,7.515,1.186c.114-.054.229-.106.454-.2.091-.039.183-.078.386-.158A12.71,12.71,0,0,1,12.933,0Z" transform="translate(705.529 982.944)" fill="#37a2b5" stroke="#fff" stroke-width="5"/>
  </g>
</svg>
